<svg xmlns="http://www.w3.org/2000/svg" width="239.503" height="305.432" viewBox="0 0 239.503 305.432">
  <g id="Group_77" data-name="Group 77" transform="translate(4331.214 -3495.077)">
    <path id="Path_51" data-name="Path 51" d="M425.166,570.551s9.7,4.379,14.029,5.894,20.2-.186,21.958,1.175,1.836,6.5-.713,7.409-21.5,5.573-28.108,4.905-18.234,3.794-21.008,3.21-3.018-16.16-2.459-19.762S425.166,570.551,425.166,570.551Z" transform="translate(-4554.131 3203.56)" fill="#484e7d"/>
    <path id="Path_52" data-name="Path 52" d="M422.211,560.86l2.234,6.247s-11.692,4.167-16.3,2.831l-1.534-6.369Z" transform="translate(-4553.412 3207.004)" fill="#eea886"/>
    <path id="Path_53" data-name="Path 53" d="M383.784,578.677s9.149,5.579,13.277,7.64,20.076,2.375,21.675,3.955,1.1,6.69-1.528,7.262-21.964,2.806-28.449,1.284-18.523,1.451-21.187.52-1.214-16.43-.238-19.9S383.784,578.677,383.784,578.677Z" transform="translate(-4538.894 3200.988)" fill="#5b639e"/>
    <path id="Path_54" data-name="Path 54" d="M382.663,569.13l1.367,6.491s-12.064,2.652-16.475.758l-.815-6.517Z" transform="translate(-4539.14 3204.044)" fill="#eea886"/>
    <path id="Path_55" data-name="Path 55" d="M217.7,387.12s41.732.366,46.817,1.091c5.547.783,27.242,1.483,29.861,5.457,26.452,40.14,43.716,105.859,43.716,105.859l-20.9,4.115s-20.218-39.164-28.68-59.523c-7.6-18.272-14.125-22.966-30.073-22.568s-67.022-3.114-96.434-6.761Z" transform="translate(-4465.851 3269.197)" fill="#292c47"/>
    <path id="Path_56" data-name="Path 56" d="M212.264,228.536s12.372,26.632,11.37,36.525-11.64,37.315-12.391,42.824,4.629,16.4,4.629,16.4l-55.722,25.8a153.826,153.826,0,0,1,0-35.094c2.247-18.78,3.9-38.965,6.375-49.578,8.456-36.224,30.818-51.235,30.818-51.235Z" transform="translate(-4464.828 3331.102)" fill="#eb4747"/>
    <path id="Path_57" data-name="Path 57" d="M216.432,385.68s41.732.366,46.817,1.091c5.547.783,27.736,1.162,29.861,5.464,15.159,30.6,18.561,112.292,18.561,112.292l-19.5,2.356s-9.579-41.463-12.584-61.206-6.761-22.619-22.722-22.214-78.5,16.385-96.158-11.987Z" transform="translate(-4465.388 3269.712)" fill="#323657"/>
    <path id="Path_58" data-name="Path 58" d="M189.344,261.242c.122-5.136,3.114-27.415,15.672-25.893s11.1,16.59,9.939,27.948c-1.22,11.884-7.383,41.033-5.425,42.529s16.86,5.977,20.064,6.619,22.51,5.374,24.1,5.817-1.554,7.942-1.554,7.942-53.482-1.567-62.425-5.778S189.344,261.242,189.344,261.242Z" transform="translate(-4474.312 3323.552)" fill="#eea886"/>
    <path id="Path_59" data-name="Path 59" d="M290.764,363.513a52.112,52.112,0,0,0,5.888,1.156c1.926.148,10.985-3.448,13.81-2.928s20.963,9.277,21.778,9.894-.488,1.817-.488,1.817l-42.541-1.535Z" transform="translate(-4511.386 3278.299)" fill="#eea886"/>
    <rect id="Rectangle_51" data-name="Rectangle 51" width="70.811" height="6.485" transform="translate(-4173.695 3656.248) rotate(-70.25)" fill="#807066"/>
    <path id="Path_63" data-name="Path 63" d="M189.92,261.493l28.667,1.034s4.449-29.823-12.025-29.251S189.92,261.493,189.92,261.493Z" transform="translate(-4475.844 3324.27)" fill="#eb4747"/>
    <g id="Group_76" data-name="Group 76" transform="translate(-4267.485 3495.077)">
      <path id="Path_60" data-name="Path 60" d="M269.442,159.841s1.335,10.915-1.624,11.4c-2.453.379-1.586,10.915-1.586,12.6s-4.591,1.085-5.842,1.669-8.346,11.024-11.955,10.016-16.975-12.462-19.479-18.484,1.8-27.235,7.891-34.5S267.022,140.7,269.442,159.841Z" transform="translate(-222.073 -137.224)" fill="#eea886"/>
      <path id="Path_61" data-name="Path 61" d="M238.147,196.122s-.36.95-.886,2.44c-.4,1.1-.88,2.478-1.38,3.981-1.367,4.07-2.857,8.988-2.966,11.422-.212,4.494-14.234-18.2-14.234-18.2a217.223,217.223,0,0,0,8.16-29.649C229.986,150.1,238.147,196.122,238.147,196.122Z" transform="translate(-218.654 -145.558)" fill="#eea886"/>
      <path id="Path_62" data-name="Path 62" d="M268.517,160.937s8.79-7.807,2.568-18.574-27.819-4.591-29.887-4.841-12.841-3.672-14.94,17.11-.777,17.669-.777,17.669,5.323-8.918,9.111-7.48,10.388,2.125,10.388,2.125.128-9.7,5.573-8.95S264.189,157.1,268.517,160.937Z" transform="translate(-220.942 -135.984)" fill="#434343"/>
      <path id="Path_64" data-name="Path 64" d="M246.346,170.2c0-1.335.546-6.876-4.879-5.624S239.31,177.945,240,178.363,246.218,181.406,246.346,170.2Z" transform="translate(-225.711 -146.154)" fill="#eea886"/>
      <path id="Path_65" data-name="Path 65" d="M218.64,214.18s24.629,44.455,23.986,38.15c-.5-4.924-11.152-28.712-11.152-28.712Z" transform="translate(-218.64 -163.975)" fill="#eea886"/>
      <path id="Path_66" data-name="Path 66" d="M241.559,212.215c-.4,1.1-.88,2.478-1.38,3.981a80.8,80.8,0,0,1-9.419-15.325C232.789,204.555,241.559,212.215,241.559,212.215Z" transform="translate(-222.979 -159.211)" fill="#a77860"/>
    </g>
    <rect id="Rectangle_50" data-name="Rectangle 50" width="70.811" height="6.485" transform="matrix(0.999, 0.04, -0.04, 0.999, -4238.083, 3649.101)" fill="#807066"/>
    <rect id="Rectangle_52" data-name="Rectangle 52" width="120.928" height="106.546" transform="translate(-4331.214 3692.071)" fill="#fab46c"/>
  </g>
</svg>
