<svg id="landing_illustration-03" data-name="landing illustration-03" xmlns="http://www.w3.org/2000/svg" xmlns:xlink="http://www.w3.org/1999/xlink" width="418.371" height="287.946" viewBox="0 0 418.371 287.946">
  <defs>
    <linearGradient id="linear-gradient" x1="1" y1="0.5" x2="0" y2="0.5" gradientUnits="objectBoundingBox">
      <stop offset="0" stop-color="#ffc05c"/>
      <stop offset="1" stop-color="#ff3857"/>
    </linearGradient>
    <linearGradient id="linear-gradient-2" x1="1" y1="0.5" x2="0" y2="0.5" gradientUnits="objectBoundingBox">
      <stop offset="0" stop-color="#40d5e6"/>
      <stop offset="1" stop-color="#57f"/>
    </linearGradient>
    <linearGradient id="linear-gradient-3" x1="1" y1="0.5" x2="0" y2="0.5" gradientUnits="objectBoundingBox">
      <stop offset="0" stop-color="#40a9e6"/>
      <stop offset="1" stop-color="#1fa9ff"/>
    </linearGradient>
    <linearGradient id="linear-gradient-4" x1="-0.026" y1="-1.149" x2="0.927" y2="1.839" xlink:href="#linear-gradient-2"/>
    <linearGradient id="linear-gradient-5" x1="0.5" y1="1.07" x2="0.5" y2="-0.622" gradientUnits="objectBoundingBox">
      <stop offset="0" stop-color="#8ec3f9"/>
      <stop offset="1" stop-color="#b8ebff"/>
    </linearGradient>
    <linearGradient id="linear-gradient-6" x1="0.5" y1="-0.969" x2="0.5" y2="1.727" xlink:href="#linear-gradient-2"/>
  </defs>
  <rect id="Rectangle_27" data-name="Rectangle 27" width="1.469" height="154.249" transform="translate(313.102 72.207)" fill="#e0e0e0"/>
  <rect id="Rectangle_28" data-name="Rectangle 28" width="1.469" height="154.249" transform="translate(208.567 72.207)" fill="#e0e0e0"/>
  <rect id="Rectangle_29" data-name="Rectangle 29" width="1.469" height="154.249" transform="translate(104.027 72.207)" fill="#e0e0e0"/>
  <rect id="Rectangle_30" data-name="Rectangle 30" width="25.038" height="4.02" transform="translate(393.333 53.201)" fill="#d9d9d9"/>
  <rect id="Rectangle_31" data-name="Rectangle 31" width="35.517" height="4.02" transform="translate(382.854 60.636)" fill="#d9d9d9"/>
  <rect id="Rectangle_32" data-name="Rectangle 32" width="29.395" height="4.02" transform="translate(285.568 53.201)" fill="#d9d9d9"/>
  <rect id="Rectangle_33" data-name="Rectangle 33" width="18.795" height="4.02" transform="translate(296.168 60.636)" fill="#d9d9d9"/>
  <rect id="Rectangle_34" data-name="Rectangle 34" width="18.217" height="4.02" transform="translate(190.345 53.201)" fill="#d9d9d9"/>
  <rect id="Rectangle_35" data-name="Rectangle 35" width="21.23" height="4.02" transform="translate(187.332 60.636)" fill="#d9d9d9"/>
  <rect id="Rectangle_36" data-name="Rectangle 36" width="26.532" height="4.02" transform="translate(77.494 53.201)" fill="#d9d9d9"/>
  <rect id="Rectangle_37" data-name="Rectangle 37" width="21.23" height="4.02" transform="translate(82.797 60.636)" fill="#d9d9d9"/>
  <rect id="Rectangle_38" data-name="Rectangle 38" width="16.632" height="5.363" transform="translate(297.204 235.597)" fill="#b8b8b8"/>
  <rect id="Rectangle_39" data-name="Rectangle 39" width="16.632" height="5.363" transform="translate(191.93 235.597)" fill="#b8b8b8"/>
  <rect id="Rectangle_40" data-name="Rectangle 40" width="16.632" height="5.363" transform="translate(87.395 235.597)" fill="#b8b8b8"/>
  <g id="Group_14" data-name="Group 14" transform="translate(0.231 112.2)" opacity="0.43">
    <path id="Path_45" data-name="Path 45" d="M42.472,330.792c32.6,0,60.948-14.086,90.494-28.786,36.488-18.141,74.219-36.9,124.462-31.774,32.091,3.28,52.235,16.35,70.009,27.881,16.1,10.444,31.3,19.62,51.908,20.41,33.3,1.273,44.855-12.929,45.046-13.794v-9.116h0c-.04.161-7.31,16.1-45.01,15.912-18.564-.1-32.268-8.985-48.13-19.278-18.418-11.953-39.336-25.536-73.112-28.972-52.27-5.343-90.917,13.875-128.285,32.459-39.1,19.444-76.418,37.681-123.6,21.859v7.476A106.078,106.078,0,0,0,42.472,330.792Z" transform="translate(-6.25 -262.367)" fill="url(#linear-gradient)"/>
  </g>
  <g id="Group_15" data-name="Group 15" transform="translate(0 91.317)" opacity="0.22">
    <path id="Path_46" data-name="Path 46" d="M238.416,308.419c24.067,0,43.154-16.184,61.844-32.031,14.172-12.009,28.872-24.294,45.841-30.351,51.787-18.493,78.284,15.274,78.521,15.57V251.334c-.282-.352-5.031-6.49-18.679-12.346-12.446-5.338-33.334-9.594-62.145.428-18.252,6.349-33.41,19.2-48.069,31.629-29.737,25.214-55.419,46.988-100.017,12.879-33.782-25.828-65.622-50.419-96.958-59.439-30.648-8.794-62.6-2.354-92.5,27.549l.221,9.327C70,197.555,124.091,237.982,191.454,289.493,209.3,303.136,224.672,308.419,238.416,308.419Z" transform="translate(-6.25 -220.855)" fill="url(#linear-gradient-2)"/>
  </g>
  <rect id="Rectangle_41" data-name="Rectangle 41" width="227.86" height="86.419" rx="27.71" transform="translate(95.022)" opacity="0.32" fill="url(#linear-gradient-3)"/>
  <path id="Path_47" data-name="Path 47" d="M521.678,128.086a29.1,29.1,0,1,0-29.1-29.1A29.1,29.1,0,0,0,521.678,128.086Zm0-52.376A23.277,23.277,0,1,1,498.4,98.988,23.277,23.277,0,0,1,521.678,75.711Z" transform="translate(-377.068 -54.521)" fill="url(#linear-gradient-4)"/>
  <rect id="Rectangle_42" data-name="Rectangle 42" width="79.552" height="6.993" transform="translate(192.544 22.95)" fill="#fff"/>
  <rect id="Rectangle_43" data-name="Rectangle 43" width="67.82" height="6.993" transform="translate(192.539 40.971)" fill="#fff"/>
  <rect id="Rectangle_44" data-name="Rectangle 44" width="109.053" height="6.993" transform="translate(192.539 58.991)" fill="#fff"/>
  <g id="Group_16" data-name="Group 16" transform="translate(115.105 95.932)" opacity="0.74">
    <rect id="Rectangle_45" data-name="Rectangle 45" width="107.458" height="99.112" rx="14.27" transform="translate(0 0)" fill="url(#linear-gradient-5)"/>
  </g>
  <rect id="Rectangle_46" data-name="Rectangle 46" width="36.508" height="4.15" transform="translate(173.316 169.845)" fill="#fff"/>
  <rect id="Rectangle_47" data-name="Rectangle 47" width="22.462" height="4.15" transform="translate(187.362 169.845)" fill="#5bb1f7"/>
  <rect id="Rectangle_48" data-name="Rectangle 48" width="56.944" height="4.15" transform="translate(152.881 178.633)" fill="#fff"/>
  <rect id="Rectangle_49" data-name="Rectangle 49" width="31.87" height="4.15" transform="translate(177.954 178.633)" fill="#5bb1f7"/>
  <path id="Path_48" data-name="Path 48" d="M549.37,381.323a8.593,8.593,0,1,0,8.593-8.593A8.593,8.593,0,0,0,549.37,381.323Z" transform="translate(-421.417 -205.008)" fill="#5bb1f7"/>
  <path id="Path_49" data-name="Path 49" d="M562.708,390.689l3.8-3.8-1.675-1.675-2.123,2.123-3.8-3.8-1.675,1.675Z" transform="translate(-425.323 -210.375)" fill="#fff"/>
  <path id="Path_50" data-name="Path 50" d="M465.44,279.524l40.714-23.5v47.008Z" transform="translate(-318.792 -147.013)" fill="url(#linear-gradient-6)"/>
  <path id="Path_51" data-name="Path 51" d="M437.813,570.536s-7.6,3.431-10.992,4.618-15.827-.146-17.205.921-1.439,5.1.558,5.806,16.848,4.367,22.025,3.843,14.287,2.973,16.461,2.515,2.364-12.662,1.927-15.485S437.813,570.536,437.813,570.536Z" transform="translate(-234.83 -303.275)" fill="#484e7d"/>
  <path id="Path_52" data-name="Path 52" d="M408.361,560.86l-1.751,4.895s9.161,3.265,12.773,2.219l1.2-4.991Z" transform="translate(-203.627 -298.494)" fill="#eea886"/>
  <path id="Path_53" data-name="Path 53" d="M394.157,578.458s-7.169,4.372-10.4,5.987-15.731,1.861-16.984,3.1-.865,5.242,1.2,5.69,17.21,2.2,22.292,1.006,14.514,1.137,16.6.408.951-12.874.186-15.6S394.157,578.458,394.157,578.458Z" transform="translate(-170.689 -306.845)" fill="#5b639e"/>
  <path id="Path_54" data-name="Path 54" d="M367.811,569.13l-1.072,5.086s9.453,2.078,12.909.594l.639-5.107Z" transform="translate(-143.272 -302.604)" fill="#eea886"/>
  <path id="Path_55" data-name="Path 55" d="M256.337,387.12s-32.7.287-36.685.855c-4.347.614-21.346,1.162-23.4,4.276C175.528,423.7,162,475.2,162,475.2l16.38,3.225s15.842-30.688,22.473-46.641c5.956-14.318,11.068-18,23.564-17.683s52.516-2.44,75.562-5.3Z" transform="translate(40.037 -212.159)" fill="#292c47"/>
  <path id="Path_56" data-name="Path 56" d="M168.1,225.429s-9.694,20.868-8.91,28.62,9.121,29.239,9.709,33.555-3.627,12.854-3.627,12.854l43.662,20.214a120.533,120.533,0,0,0,0-27.5c-1.761-14.715-3.059-30.532-5-38.848-6.626-28.384-24.148-40.146-24.148-40.146Z" transform="translate(131.729 -126.222)" fill="#eb4747"/>
  <path id="Path_57" data-name="Path 57" d="M235.337,385.68s-32.7.287-36.685.855c-4.347.614-21.733.911-23.4,4.281-11.878,23.977-14.544,87.989-14.544,87.989l15.278,1.846s7.506-32.489,9.86-47.959,5.3-17.723,17.8-17.406,61.507,12.839,75.346-9.393Z" transform="translate(61.666 -211.443)" fill="#323657"/>
  <path id="Path_58" data-name="Path 58" d="M236.407,255.622c-.1-4.025-2.44-21.482-12.28-20.289s-8.7,13-7.788,21.9c.956,9.312,5.785,32.152,4.251,33.324s-13.211,4.684-15.721,5.187-17.638,4.211-18.881,4.558,1.217,6.223,1.217,6.223S229.112,305.3,236.12,302,236.407,255.622,236.407,255.622Z" transform="translate(88.814 -136.704)" fill="#eea886"/>
  <path id="Path_59" data-name="Path 59" d="M321.919,363.119a40.835,40.835,0,0,1-4.613.906c-1.509.116-8.608-2.7-10.821-2.294S290.059,369,289.42,369.483s.382,1.424.382,1.424l33.334-1.2Z" transform="translate(-47.117 -199.522)" fill="#eea886"/>
  <rect id="Rectangle_50" data-name="Rectangle 50" width="55.485" height="5.081" transform="matrix(-0.999, 0.04, -0.04, -0.999, 288.689, 174.384)" fill="#807066"/>
  <rect id="Rectangle_51" data-name="Rectangle 51" width="55.485" height="5.081" transform="translate(233.249 176.625) rotate(-109.75)" fill="#807066"/>
  <path id="Path_60" data-name="Path 60" d="M228.465,155.428s-1.046,8.552,1.273,8.93c1.922.3,1.243,8.552,1.243,9.875s3.6.85,4.578,1.308,6.54,8.638,9.367,7.848,13.3-9.765,15.263-14.484-1.409-21.341-6.183-27.03S230.362,140.431,228.465,155.428Z" transform="translate(45.94 -89.087)" fill="#eea886"/>
  <path id="Path_61" data-name="Path 61" d="M218.68,188.9s.282.745.694,1.912c.312.86.689,1.942,1.082,3.119,1.072,3.189,2.239,7.043,2.324,8.95.166,3.522,11.153-14.262,11.153-14.262a170.21,170.21,0,0,1-6.394-23.232C225.074,152.834,218.68,188.9,218.68,188.9Z" transform="translate(77.568 -100.655)" fill="#eea886"/>
  <path id="Path_62" data-name="Path 62" d="M228.827,155.537s-6.887-6.117-2.012-14.554,21.8-3.6,23.418-3.793,10.062-2.878,11.707,13.407.609,13.845.609,13.845-4.171-6.988-7.139-5.861a41.689,41.689,0,0,1-8.14,1.665s-.1-7.6-4.367-7.013S232.218,152.528,228.827,155.537Z" transform="translate(45.417 -87.364)" fill="#434343"/>
  <path id="Path_63" data-name="Path 63" d="M212.811,255.384l-22.462.81s-3.486-23.368,9.423-22.92S212.811,255.384,212.811,255.384Z" transform="translate(113.159 -135.707)" fill="#eb4747"/>
  <path id="Path_64" data-name="Path 64" d="M238.406,168.945c0-1.046-.428-5.388,3.823-4.407s1.69,10.474,1.147,10.8S238.507,177.724,238.406,168.945Z" transform="translate(56.946 -101.483)" fill="#eea886"/>
  <rect id="Rectangle_52" data-name="Rectangle 52" width="94.755" height="83.486" transform="translate(266.703 202.977)" fill="#fab46c"/>
  <path id="Path_65" data-name="Path 65" d="M237.445,214.18s-19.3,34.833-18.8,29.893c.392-3.859,8.738-22.5,8.738-22.5Z" transform="translate(74.077 -126.222)" fill="#eea886"/>
  <path id="Path_66" data-name="Path 66" d="M230.76,209.759c.312.86.689,1.942,1.082,3.119a63.307,63.307,0,0,0,7.38-12.009C237.632,203.758,230.76,209.759,230.76,209.759Z" transform="translate(66.203 -119.608)" fill="#a77860"/>
</svg>
