<svg xmlns="http://www.w3.org/2000/svg" width="126.667" height="30.587" viewBox="0 0 126.667 30.587">
  <g id="Group_2" data-name="Group 2" transform="translate(-386 -260)">
    <path id="Path_1" data-name="Path 1" d="M1.4,30.827v-6.1l21.831-.14L23.038.24h6.231L29.462,30.7Z" transform="translate(384.75 259.76)" fill="#27c97b"/>
    <path id="Path_2" data-name="Path 2" d="M1.35,20.686V15.647l18.479-.107h.483v5Z" transform="translate(384.747 260.898)" fill="#27c97b"/>
    <path id="Path_3" data-name="Path 3" d="M1.3,13.417V8.378L19.779,8.26h.537v5.092Z" transform="translate(384.743 260.356)" fill="#27c97b"/>
    <path id="Path_4" data-name="Path 4" d="M1.26,6.2V1.161L19.707,1h.526V6Z" transform="translate(384.74 259.817)" fill="#27c97b"/>
    <g id="Group_1" data-name="Group 1" transform="translate(421.013 261.023)">
      <path id="Path_5" data-name="Path 5" d="M38.631,1.35V28.907H33.85V1.35Z" transform="translate(-33.85 -1.181)" fill="#fff"/>
      <path id="Path_6" data-name="Path 6" d="M47.513,4c0,3.75-5.683,3.75-5.683,0S47.513.255,47.513,4ZM42.26,9.376V28.919h4.824V9.409Z" transform="translate(-33.257 -1.193)" fill="#fff"/>
      <path id="Path_7" data-name="Path 7" d="M63.543,14.128a6.554,6.554,0,0,0-4.813-1.74c-2.288,0-3.556.72-3.556,1.945s1.15,1.966,3.631,2.149c3.674.236,8.337,1.074,8.337,6.242,0,3.438-2.8,6.392-8.369,6.392-3.083,0-6.167-.516-9-3.47l2.364-3.438a10.744,10.744,0,0,0,6.715,2.729c1.816,0,3.513-.913,3.513-2.331s-1.074-1.9-3.868-2.052c-3.674-.279-8.058-1.622-8.058-6.049S55.1,8.4,58.612,8.4a10.421,10.421,0,0,1,7.574,2.568Z" transform="translate(-32.666 -0.658)" fill="#fff"/>
      <path id="Path_8" data-name="Path 8" d="M75.715,3.81V9.386h5.372v4.147H75.715v8.412a2.417,2.417,0,0,0,2.525,2.761,5.511,5.511,0,0,0,2.331-.591l1.343,4.115a10.883,10.883,0,0,1-3.986.827c-4.222.15-6.983-2.256-6.983-7.112V13.479H67.26V9.386H70.9V4.326Z" transform="translate(-31.366 -0.998)" fill="#fff"/>
      <path id="Path_9" data-name="Path 9" d="M87.647,20.414c.312,2.407,2.407,4.147,5.8,4.147a8.025,8.025,0,0,0,5.211-1.826l3.083,3.04a11.936,11.936,0,0,1-8.369,3.159c-6.715,0-10.744-4.136-10.744-10.378,0-5.92,4.029-10.185,10.346-10.185,6.521,0,10.582,4.018,9.841,12.044Zm10.582-4c-.322-2.525-2.3-3.782-5.06-3.782a5.243,5.243,0,0,0-5.447,3.782Z" transform="translate(-30.223 -0.659)" fill="#fff"/>
      <path id="Path_10" data-name="Path 10" d="M109.369,8.958l.355,2.245a5.737,5.737,0,0,1,5.49-2.761A7.327,7.327,0,0,1,120.22,10.3l-2.149,4.179a4.813,4.813,0,0,0-3.47-1.257c-2.535,0-4.856,1.343-4.856,4.931V28.382H104.9V8.958Z" transform="translate(-28.567 -0.656)" fill="#fff"/>
    </g>
  </g>
</svg>
