<svg xmlns="http://www.w3.org/2000/svg" width="11.942" height="16.509" viewBox="0 0 11.942 16.509">
  <g id="Group_87" data-name="Group 87" transform="translate(-2.42 -0.999)">
    <path id="Path_130" data-name="Path 130" d="M19.5,5.18a2.074,2.074,0,0,1,1.653-.013.7.7,0,0,1,.46.482,15.194,15.194,0,0,1,.244,3.758c-.034.731-1.1,1.115-1.658,1.587A9.377,9.377,0,0,0,23.83,17.28c.688-.248,1.553-.979,2.2-.643a15.2,15.2,0,0,1,3.132,2.091.7.7,0,0,1,.188.639,2.212,2.212,0,0,1-.838,1.425C22.992,25.184,13.1,8.043,19.5,5.18Z" transform="translate(-15 -4)" fill="#27c97b" fill-rule="evenodd"/>
  </g>
</svg>
